<svg
  xmlns="http://www.w3.org/2000/svg"
  width="132"
  height="35"
  viewBox="0 0 132 35"
  fill="none"
>
  <path
    d="M54.9109 23.3318C54.5642 23.5884 54.1345 23.7846 53.6219 23.9203C53.1244 24.0411 52.5967 24.1015 52.039 24.1015C50.5917 24.1015 49.4685 23.7317 48.6694 22.9923C47.8855 22.2529 47.4935 21.1664 47.4935 19.7327V14.7303H44.5498V12.014H47.4935H51.0213H53.9096V14.7303H51.0213V19.6874C51.0213 20.2005 51.1494 20.6004 51.4057 20.8872C51.6771 21.1588 52.054 21.2946 52.5365 21.2946C53.0943 21.2946 53.5692 21.1437 53.9612 20.8419L54.9109 23.3318Z"
    fill="black"
  />
  <path
    d="M62.3051 24.1016C61.0236 24.1016 59.8703 23.8374 58.8451 23.3093C57.835 22.7661 57.0435 22.0191 56.4707 21.0684C55.8978 20.1176 55.6113 19.0387 55.6113 17.8315C55.6113 16.6243 55.8978 15.5453 56.4707 14.5946C57.0435 13.6439 57.835 12.9045 58.8451 12.3763C59.8703 11.833 61.0236 11.5614 62.3051 11.5614C63.5866 11.5614 64.7323 11.833 65.7425 12.3763C66.7526 12.9045 67.5441 13.6439 68.117 14.5946C68.6898 15.5453 68.9763 16.6243 68.9763 17.8315C68.9763 19.0387 68.6898 20.1176 68.117 21.0684C67.5441 22.0191 66.7526 22.7661 65.7425 23.3093C64.7323 23.8374 63.5866 24.1016 62.3051 24.1016ZM62.3051 21.2042C63.2096 21.2042 63.9484 20.9024 64.5213 20.2988C65.1093 19.6801 65.4032 18.8577 65.4032 17.8315C65.4032 16.8053 65.1093 15.9905 64.5213 15.3868C63.9484 14.7681 63.2096 14.4588 62.3051 14.4588C61.4006 14.4588 60.6543 14.7681 60.0663 15.3868C59.4783 15.9905 59.1843 16.8053 59.1843 17.8315C59.1843 18.8577 59.4783 19.6801 60.0663 20.2988C60.6543 20.9024 61.4006 21.2042 62.3051 21.2042Z"
    fill="black"
  />
  <path
    d="M86.9162 11.5614C88.4389 11.5614 89.6449 12.0142 90.5344 12.9195C91.439 13.8099 91.8912 15.1529 91.8912 16.9487V23.9205H88.3635V17.492C88.3635 16.5261 88.16 15.8094 87.7529 15.3415C87.3609 14.8587 86.7956 14.6172 86.0568 14.6172C85.2276 14.6172 84.5719 14.8888 84.0894 15.4321C83.6069 15.9603 83.3657 16.7525 83.3657 17.8088V23.9205H79.8379V17.492C79.8379 15.5754 79.069 14.6172 77.5313 14.6172C76.7172 14.6172 76.0689 14.8888 75.5865 15.4321C75.104 15.9603 74.8628 16.7525 74.8628 17.8088V23.9205H71.335V11.7425H74.7045V13.1459C75.1568 12.6329 75.707 12.2405 76.3553 11.9689C77.0187 11.6973 77.7423 11.5614 78.5263 11.5614C79.3856 11.5614 80.162 11.735 80.8556 12.0821C81.5491 12.414 82.1069 12.9045 82.529 13.5533C83.0265 12.9195 83.6522 12.4291 84.406 12.0821C85.1748 11.735 86.0116 11.5614 86.9162 11.5614Z"
    fill="black"
  />
  <path
    d="M100.974 24.1016C99.6928 24.1016 98.5393 23.8374 97.5139 23.3093C96.5038 22.7661 95.7128 22.0191 95.1396 21.0684C94.5668 20.1176 94.2803 19.0387 94.2803 17.8315C94.2803 16.6243 94.5668 15.5453 95.1396 14.5946C95.7128 13.6439 96.5038 12.9045 97.5139 12.3763C98.5393 11.833 99.6928 11.5614 100.974 11.5614C102.255 11.5614 103.401 11.833 104.411 12.3763C105.421 12.9045 106.213 13.6439 106.786 14.5946C107.358 15.5453 107.645 16.6243 107.645 17.8315C107.645 19.0387 107.358 20.1176 106.786 21.0684C106.213 22.0191 105.421 22.7661 104.411 23.3093C103.401 23.8374 102.255 24.1016 100.974 24.1016ZM100.974 21.2042C101.878 21.2042 102.617 20.9024 103.19 20.2988C103.778 19.6801 104.072 18.8577 104.072 17.8315C104.072 16.8053 103.778 15.9905 103.19 15.3868C102.617 14.7681 101.878 14.4588 100.974 14.4588C100.07 14.4588 99.3236 14.7681 98.7354 15.3868C98.1471 15.9905 97.8535 16.8053 97.8535 17.8315C97.8535 18.8577 98.1471 19.6801 98.7354 20.2988C99.3236 20.9024 100.07 21.2042 100.974 21.2042Z"
    fill="black"
  />
  <path
    d="M113.373 13.3496C113.795 12.7611 114.36 12.316 115.069 12.0142C115.793 11.7123 116.621 11.5614 117.557 11.5614V14.821C117.164 14.7908 116.9 14.7757 116.765 14.7757C115.754 14.7757 114.963 15.0624 114.39 15.6358C113.818 16.1942 113.531 17.0392 113.531 18.171V23.9205H110.003V11.7425H113.373V13.3496Z"
    fill="black"
  />
  <path
    d="M132.001 11.7423V23.9203H128.654V22.4716C128.186 22.9998 127.628 23.4072 126.98 23.694C126.332 23.9656 125.631 24.1015 124.877 24.1015C123.279 24.1015 122.013 23.6411 121.078 22.7207C120.144 21.8001 119.676 20.4344 119.676 18.6236V11.7423H123.203V18.103C123.203 20.0648 124.025 21.0456 125.668 21.0456C126.513 21.0456 127.191 20.774 127.704 20.2307C128.217 19.6724 128.473 18.85 128.473 17.7635V11.7423H132.001Z"
    fill="black"
  />
  <path
    fill-rule="evenodd"
    clip-rule="evenodd"
    d="M17.325 34.6828C26.8933 34.6828 34.6499 26.9189 34.6499 17.3414C34.6499 7.76401 26.8933 0 17.325 0C7.75665 0 0 7.76401 0 17.3414C0 26.9189 7.75665 34.6828 17.325 34.6828ZM21.2256 8.67592C20.1879 8.84974 19.0567 9.0392 17.8445 9.03921C16.8973 9.03923 15.9044 8.84031 14.9207 8.64319C12.9797 8.2543 11.0738 7.87245 9.62211 9.03917C6.58777 11.1138 5.91278 14.1809 5.78175 17.4781C5.64683 20.8733 7.54628 24.0781 9.9874 26.3106C12.2777 28.4053 15.3677 29.0078 18.4035 28.8878C21.3076 28.7731 24.3713 28.0322 26.2093 25.6699C27.26 24.3194 26.9139 22.6329 26.5536 20.8783C26.3219 19.7493 26.0843 18.5922 26.2093 17.4781C26.3304 16.3985 26.5657 15.4521 26.7794 14.5929C27.2763 12.5946 27.6559 11.0678 26.2093 9.43401C24.981 8.04689 23.2877 8.33052 21.2256 8.67592Z"
    fill="url(#paint0_linear)"
  />
  <defs>
    <linearGradient
      id="paint0_linear"
      x1="5.58249"
      y1="5.00974"
      x2="28.1289"
      y2="30.4226"
      gradientUnits="userSpaceOnUse"
    >
      <stop stop-color="#41BA8A" />
      <stop offset="1" stop-color="#266D4F" />
    </linearGradient>
  </defs>
</svg>